<?xml version="1.0" encoding="UTF-8" standalone="no"?>
<svg
   xml:space="preserve"
   width="128"
   height="128"
   style="display:inline;enable-background:new"
   version="1.0"
   viewBox="0 0 128 128"
   id="svg21"
   xmlns="http://www.w3.org/2000/svg"
   xmlns:svg="http://www.w3.org/2000/svg"><defs
     id="defs16"><linearGradient
       id="b"><stop
         offset="0"
         style="stop-color:#000;stop-opacity:1"
         id="stop1" /><stop
         offset=".04166667"
         style="stop-color:#fff;stop-opacity:1"
         id="stop2" /><stop
         offset=".08333334"
         style="stop-color:#000;stop-opacity:1"
         id="stop3" /><stop
         offset=".91666669"
         style="stop-color:#000;stop-opacity:1"
         id="stop4" /><stop
         offset=".95833331"
         style="stop-color:#fff;stop-opacity:1"
         id="stop5" /><stop
         offset="1"
         style="stop-color:#000;stop-opacity:1"
         id="stop6" /></linearGradient><linearGradient
       id="a"
       x1="0"
       x2="1"
       y1="0"
       y2="0"
       gradientTransform="rotate(30.092 -31.48777259 382.163725799)scale(65.23879)"
       gradientUnits="userSpaceOnUse"><stop
         offset="0"
         style="stop-color:#006dff;stop-opacity:1"
         id="stop7" /><stop
         offset="1"
         style="stop-color:#0555c0;stop-opacity:1"
         id="stop8" /></linearGradient><linearGradient
       id="c"
       x1="0"
       x2="1"
       y1="0"
       y2="0"
       gradientTransform="matrix(30.92897 -35.43636 35.43636 30.92897 156.44189 91.109769)"
       gradientUnits="userSpaceOnUse"><stop
         offset="0"
         style="stop-color:#ffa200;stop-opacity:1"
         id="stop9" /><stop
         offset="1"
         style="stop-color:#ffc300;stop-opacity:1"
         id="stop10" /></linearGradient><linearGradient
       id="d"
       x1="0"
       x2="1"
       y1="0"
       y2="0"
       gradientTransform="rotate(38.866 31.144762108 313.06953244)scale(57.175)"
       gradientUnits="userSpaceOnUse"><stop
         offset="0"
         style="stop-color:#006dff;stop-opacity:1"
         id="stop11" /><stop
         offset="1"
         style="stop-color:#0555c0;stop-opacity:1"
         id="stop12" /></linearGradient><linearGradient
       id="e"
       x1="0"
       x2="1"
       y1="0"
       y2="0"
       gradientTransform="rotate(-37.343 204.22267965 -187.263640542)scale(41.84954)"
       gradientUnits="userSpaceOnUse"><stop
         offset="0"
         style="stop-color:#ffa200;stop-opacity:1"
         id="stop13" /><stop
         offset="1"
         style="stop-color:#ffc300;stop-opacity:1"
         id="stop14" /></linearGradient><linearGradient
       id="i"
       x1="49.645729"
       x2="104.64175"
       y1="49.23484"
       y2="82.615204"
       gradientTransform="translate(0 24)"
       gradientUnits="userSpaceOnUse"
       href="#a" /><linearGradient
       id="h"
       x1="48"
       x2="464"
       y1="44"
       y2="44"
       gradientTransform="matrix(.25 0 0 .25 0 60.999993)"
       gradientUnits="userSpaceOnUse"
       href="#b" /><linearGradient
       id="j"
       x1="0"
       x2="1"
       y1="0"
       y2="0"
       gradientTransform="matrix(30.92897 -35.43636 35.43636 30.92897 156.44189 91.109769)"
       gradientUnits="userSpaceOnUse"
       href="#c" /><linearGradient
       id="f"
       x1="36.409695"
       x2="104.64175"
       y1="47.028866"
       y2="82.615204"
       gradientTransform="translate(0 28)"
       gradientUnits="userSpaceOnUse"
       href="#a" /><linearGradient
       id="g"
       x1="0"
       x2="1"
       y1="0"
       y2="0"
       gradientTransform="matrix(30.92897 -35.43636 35.43636 30.92897 18.44823 101.788)"
       gradientUnits="userSpaceOnUse"
       href="#c" /><linearGradient
       id="l"
       x1="0"
       x2="1"
       y1="0"
       y2="0"
       gradientTransform="rotate(38.866 -38.60216391 115.610776674)scale(57.175)"
       gradientUnits="userSpaceOnUse"
       href="#d" /><linearGradient
       id="m"
       x1="0"
       x2="1"
       y1="0"
       y2="0"
       gradientTransform="rotate(-37.343 134.549705073 18.915337152)scale(41.84954)"
       gradientUnits="userSpaceOnUse"
       href="#e" /><filter
       id="k"
       width="1.1800004"
       height="1.3583149"
       x="-0.090000201"
       y="-0.17915745"
       style="color-interpolation-filters:sRGB"><feGaussianBlur
         result="blur"
         stdDeviation="3.9"
         id="feGaussianBlur14" /><feComposite
         in="SourceGraphic"
         in2="blur"
         operator="atop"
         result="composite1"
         id="feComposite14" /><feComposite
         in2="composite1"
         operator="in"
         result="composite2"
         id="feComposite15" /><feComposite
         in2="composite2"
         operator="in"
         result="composite3"
         id="feComposite16" /></filter></defs><rect
     width="104"
     height="76"
     x="12"
     y="40"
     rx="8"
     ry="8"
     style="display:inline;fill:url(#f);fill-opacity:1;stroke:none;stroke-width:.25;stroke-linecap:butt;stroke-linejoin:miter;stroke-miterlimit:4;stroke-dasharray:none;stroke-dashoffset:0;stroke-opacity:1;marker:none;marker-start:none;marker-mid:none;marker-end:none;paint-order:normal;enable-background:new"
     id="rect16" /><path
     d="M12 63.638672V108c0 4.10158 3.05694 7.45906 7.02539 7.9375.33538.023.65322.0625 1.01172.0625h16.60742v-4c4.16563-5.11394 8.22677-5.75333 12.54883-16.298828 3.11025-7.588963 2.4613-10.957776 3.64844-15.943359.64269-2.699591 1.7258-4.706294 2.73047-6.103516 1.07622-1.496377 2.60657-2.604986 4.36328-3.162109l12.37695-3.925782c.36334-.115228.61701-.445399.63281-.826172.01584-.380772-.20807-.731843-.56054-.876953-2.74645-1.130998-7.3077-3.008663-10.04102-4.136718-1.41058-.58112-2.60904-1.579108-3.43555-2.861329-1.10021-1.693102-2.86297-4.072808-4.74804-5.302734-3.85051-2.512148-8.8661-3.740901-15.06055-3.509766-4.06173.15009-7.4937 1.554092-9.85938 2.669922C24.8652 53.786117 18.77761 58.838268 12 63.638672m33.07617-5.121094c2.00672.01904 3.79209 1.230047 4.30078 3.09375-1.25619-.397298-3.09302-.495632-4.91992.002-1.82689.497811-3.35916 1.514591-4.24023 2.494141-.62504-2.294822.91949-4.717599 3.44726-5.40625.47396-.129122.94887-.187988 1.41211-.183594z"
     style="clip-rule:evenodd;fill:url(#g);fill-rule:evenodd;stroke-width:.226381;stroke-linejoin:round;stroke-miterlimit:2"
     id="path16" /><rect
     width="104"
     height="76"
     x="12"
     y="39.999992"
     rx="8"
     ry="8"
     style="display:inline;fill:url(#h);fill-opacity:1;stroke:none;stroke-width:.25;stroke-linecap:butt;stroke-linejoin:miter;stroke-miterlimit:4;stroke-dasharray:none;stroke-dashoffset:0;stroke-opacity:1;marker:none;marker-start:none;marker-mid:none;marker-end:none;paint-order:normal;enable-background:new;opacity:.3"
     id="rect17" /><rect
     width="104"
     height="76"
     x="12"
     y="36"
     rx="8"
     ry="8"
     style="display:inline;fill:url(#i);fill-opacity:1;stroke:none;stroke-width:.25;stroke-linecap:butt;stroke-linejoin:miter;stroke-miterlimit:4;stroke-dasharray:none;stroke-dashoffset:0;stroke-opacity:1;marker:none;marker-start:none;marker-mid:none;marker-end:none;paint-order:normal;enable-background:new"
     id="rect18" /><path
     d="M149.99366 52.960442V97.32177c0 4.10158 3.05694 7.45906 7.02539 7.9375.33538.02303.65322.0625 1.01172.0625h16.60742l2.60156-3.19336c4.16563-5.11394 5.62521-6.559973 9.94727-17.105468 3.11025-7.588963 2.4613-10.957776 3.64844-15.943359.64269-2.699591 1.7258-4.706294 2.73047-6.103516 1.07622-1.496377 2.60657-2.604986 4.36328-3.162109l12.37695-3.925782c.36334-.115228.61701-.445399.63281-.826172.01584-.380772-.20807-.731843-.56054-.876953-2.74645-1.130998-7.3077-3.008663-10.04102-4.136718-1.41058-.58112-2.60904-1.579108-3.43555-2.861329-1.10021-1.693102-2.86297-4.072808-4.74804-5.302734-3.85051-2.512148-8.8661-3.740901-15.06055-3.509766-4.06173.15009-7.4937 1.554092-9.85938 2.669922-4.37503 2.063461-10.46262 7.115612-17.24023 11.916016m33.07617-5.121094c2.00672.019036 3.79209 1.230047 4.30078 3.09375-1.25619-.397298-3.09302-.495632-4.91992.001953-1.82689.497811-3.35916 1.514591-4.24023 2.494141-.62504-2.294822.91949-4.717599 3.44726-5.40625.47396-.129122.94887-.187988 1.41211-.183594"
     style="clip-rule:evenodd;fill:url(#j);fill-rule:evenodd;stroke-width:.226381;stroke-linejoin:round;stroke-miterlimit:2"
     transform="translate(-137.99366 6.67823)"
     id="path18" /><path
     d="M115.35955 65.505461v-15.11001H11.36v15.11001L64 102.64l51.35977-37.134539Z"
     style="clip-rule:evenodd;display:inline;opacity:.51;fill:#000;fill-rule:nonzero;stroke-width:.226381;stroke-linejoin:round;stroke-miterlimit:2;filter:url(#k);enable-background:new"
     id="path19" /><path
     d="M116 43.939453C115.96783 39.535416 112.4119 36 108 36H20c-4.411444 0-7.967114 3.534092-8 7.9375v16.300781l52 28.56836 52-28.56836z"
     style="clip-rule:evenodd;display:inline;fill:url(#l);fill-rule:nonzero;stroke-width:.226381;stroke-linejoin:round;stroke-miterlimit:2;enable-background:new"
     id="path20" /><path
     d="m12 60.238281 39.830078 21.882813c.277781-2.030754.506762-4.242796 1.011719-6.363282.64292-2.699364 1.725799-4.706293 2.730469-6.103515 1.07599-1.496377 2.606341-2.604986 4.363281-3.162109l12.378906-3.925782c.36334-.115228.61501-.445399.630859-.826172.0158-.380772-.208076-.731843-.560546-.876953-2.74645-1.130998-7.307696-3.008664-10.041016-4.136719-1.41058-.580893-2.609037-1.579107-3.435547-2.861328-1.10021-1.693102-2.862977-4.074761-4.748047-5.304687-3.85051-2.512148-8.865867-3.738948-15.060547-3.507813-4.06173.15009-7.493695 1.554092-9.859375 2.669922C24.865204 49.786117 18.77784 55.437877 12 60.238281m33.076172-5.720703c2.006723.019036 3.792098 1.230047 4.300781 3.09375-1.25619-.397298-3.093032-.495632-4.919922.001953-1.82689.497812-3.359164 1.514591-4.240234 2.494141-.62504-2.294822.919505-4.7176 3.447265-5.40625.473957-.129122.94887-.187988 1.41211-.183594"
     style="clip-rule:evenodd;fill:url(#m);fill-rule:evenodd;stroke-width:.226381;stroke-linejoin:round;stroke-miterlimit:2"
     id="path21" /></svg>
